<mxfile host="app.diagrams.net" agent="Mozilla/5.0 (Windows NT 10.0; Win64; x64) AppleWebKit/537.36 (KHTML, like Gecko) Chrome/135.0.0.0 Safari/537.36 Edg/135.0.0.0" version="26.2.12">
  <diagram name="페이지-1" id="FJdj3fKtLCTWme6ICjp5">
    <mxGraphModel dx="425" dy="515" grid="0" gridSize="10" guides="1" tooltips="1" connect="1" arrows="1" fold="1" page="0" pageScale="1" pageWidth="827" pageHeight="1169" math="0" shadow="0">
      <root>
        <mxCell id="0" />
        <mxCell id="1" parent="0" />
        <mxCell id="-k8PNhVYm_gDYFCY9Zmp-1" value="" style="rounded=0;whiteSpace=wrap;html=1;" vertex="1" parent="1">
          <mxGeometry x="41" y="113" width="120" height="60" as="geometry" />
        </mxCell>
        <mxCell id="-k8PNhVYm_gDYFCY9Zmp-2" value="" style="rounded=0;whiteSpace=wrap;html=1;" vertex="1" parent="1">
          <mxGeometry x="141" y="225" width="120" height="60" as="geometry" />
        </mxCell>
        <mxCell id="-k8PNhVYm_gDYFCY9Zmp-3" value="" style="rounded=0;whiteSpace=wrap;html=1;" vertex="1" parent="1">
          <mxGeometry x="249" y="116" width="120" height="60" as="geometry" />
        </mxCell>
        <mxCell id="-k8PNhVYm_gDYFCY9Zmp-5" value="" style="endArrow=classic;html=1;rounded=0;fontSize=12;startSize=8;endSize=8;curved=1;" edge="1" parent="1">
          <mxGeometry width="50" height="50" relative="1" as="geometry">
            <mxPoint x="202" y="218" as="sourcePoint" />
            <mxPoint x="202" y="179" as="targetPoint" />
          </mxGeometry>
        </mxCell>
        <mxCell id="-k8PNhVYm_gDYFCY9Zmp-6" value="" style="shape=flexArrow;endArrow=classic;html=1;rounded=0;fontSize=12;startSize=8;endSize=8;curved=1;" edge="1" parent="1">
          <mxGeometry width="50" height="50" relative="1" as="geometry">
            <mxPoint x="173" y="150" as="sourcePoint" />
            <mxPoint x="234" y="150" as="targetPoint" />
          </mxGeometry>
        </mxCell>
        <mxCell id="-k8PNhVYm_gDYFCY9Zmp-7" value="자바 소스 파일&lt;div&gt;(.java)&lt;/div&gt;" style="text;html=1;align=center;verticalAlign=middle;whiteSpace=wrap;rounded=0;" vertex="1" parent="1">
          <mxGeometry x="64" y="128" width="76" height="30" as="geometry" />
        </mxCell>
        <mxCell id="-k8PNhVYm_gDYFCY9Zmp-8" value="javac 컴파일" style="text;html=1;align=center;verticalAlign=middle;whiteSpace=wrap;rounded=0;" vertex="1" parent="1">
          <mxGeometry x="164" y="240" width="74" height="30" as="geometry" />
        </mxCell>
        <mxCell id="-k8PNhVYm_gDYFCY9Zmp-9" value="바이트코드 파일&lt;div&gt;(.class)&lt;/div&gt;" style="text;html=1;align=center;verticalAlign=middle;whiteSpace=wrap;rounded=0;" vertex="1" parent="1">
          <mxGeometry x="263" y="131" width="87" height="30" as="geometry" />
        </mxCell>
      </root>
    </mxGraphModel>
  </diagram>
</mxfile>
